<svg data-v-0dd9719b="" version="1.0" xmlns="http://www.w3.org/2000/svg" xmlns:xlink="http://www.w3.org/1999/xlink" width="100%" height="100%" viewBox="0 0 340.000000 250.000000" preserveAspectRatio="xMidYMid meet" color-interpolation-filters="sRGB" style="margin: auto;"> <rect data-v-0dd9719b="" x="0" y="0" width="100%" height="100%" fill="#fff" fill-opacity="1" class="background"></rect> <rect data-v-0dd9719b="" x="0" y="0" width="100%" height="100%" fill="url(#watermark)" fill-opacity="1" class="watermarklayer"></rect> <g data-v-0dd9719b="" fill="#333" class="icon-text-wrapper icon-svg-group iconsvg" transform="translate(48.99000549316406,92.21383285522461)"><g class="iconsvg-imagesvg" transform="translate(0,0)"><g><rect fill="#333" fill-opacity="0" stroke-width="2" x="0" y="0" width="60" height="65.57233721667286" class="image-rect"></rect> <svg x="0" y="0" width="60" height="65.57233721667286" filtersec="colorsb843419715" class="image-svg-svg primary" style="overflow: visible;"><svg xmlns="http://www.w3.org/2000/svg" viewBox="-0.000005335050900612259 0 46.28000259399414 50.57786560058594"><path d="M21.22 0v21.66a4.19 4.19 0 0 1-2.11 3.64L.36 36.12A8.52 8.52 0 0 1 0 33.66V16.72a8.48 8.48 0 0 1 1.13-4.23 8.59 8.59 0 0 1 3.11-3.11L18.9.91A8.75 8.75 0 0 1 21.22 0z" fill="#2a3294"></path><path d="M44 39.45A8.7 8.7 0 0 1 42 41l-14.62 8.46a8.6 8.6 0 0 1-8.48 0L4.24 41a8.42 8.42 0 0 1-1.95-1.56L21 28.63a4.17 4.17 0 0 1 4.21 0z" fill="#ff006f"></path><path d="M46.28 16.72v16.94a8.52 8.52 0 0 1-.37 2.46L27.16 25.3a4.23 4.23 0 0 1-2.1-3.65V0a8.89 8.89 0 0 1 2.32.91L42 9.38a8.52 8.52 0 0 1 4.24 7.34z" fill="#0087ff"></path></svg></svg> <!----></g></g> <g transform="translate(67.00000381469727,16.806166648864746)"><g data-gra="path-name" fill-rule="" class="tp-name iconsvg-namesvg"><g transform="scale(1)"><g><path d="M6.23 0.27Q4.94 0.27 4.16-0.51 3.38-1.29 3.38-2.63L3.38-2.63 3.38-28.66Q3.38-29.96 4.12-30.67 4.85-31.38 6.14-31.38L6.14-31.38 17.09-31.38Q22.12-31.38 24.93-28.86 27.73-26.35 27.73-21.81L27.73-21.81Q27.73-17.27 24.93-14.73 22.12-12.2 17.09-12.2L17.09-12.2 9.12-12.2 9.12-2.63Q9.12-1.29 8.35-0.51 7.57 0.27 6.23 0.27L6.23 0.27ZM16.38-16.6Q22.3-16.6 22.3-21.77L22.3-21.77Q22.3-26.93 16.38-26.93L16.38-26.93 9.12-26.93 9.12-16.6 16.38-16.6ZM41.39 0.36Q38.06 0.36 35.54-1.02 33.03-2.4 31.65-4.99 30.27-7.57 30.27-10.99L30.27-10.99Q30.27-14.42 31.65-16.98 33.03-19.54 35.54-20.92 38.06-22.3 41.39-22.3L41.39-22.3Q44.73-22.3 47.25-20.92 49.76-19.54 51.12-16.98 52.48-14.42 52.48-10.99L52.48-10.99Q52.48-7.57 51.12-4.99 49.76-2.4 47.25-1.02 44.73 0.36 41.39 0.36L41.39 0.36ZM41.35-3.96Q44.07-3.96 45.49-5.74 46.91-7.52 46.91-10.99L46.91-10.99Q46.91-14.42 45.49-16.22 44.07-18.03 41.39-18.03L41.39-18.03Q38.72-18.03 37.28-16.22 35.83-14.42 35.83-10.99L35.83-10.99Q35.83-7.52 37.26-5.74 38.68-3.96 41.35-3.96L41.35-3.96ZM64.94 0.36Q60.09 0.36 57.11-1.56L57.11-1.56Q55.68-2.4 55.68-3.96L55.68-3.96Q55.68-4.85 56.17-5.41 56.66-5.96 57.37-5.96L57.37-5.96Q58.13-5.96 59.47-5.25L59.47-5.25Q60.89-4.58 62.07-4.23 63.25-3.87 65.07-3.87L65.07-3.87Q66.94-3.87 67.99-4.5 69.04-5.12 69.04-6.23L69.04-6.23Q69.04-6.99 68.61-7.43 68.19-7.88 67.1-8.26 66.01-8.64 63.78-9.12L63.78-9.12Q59.82-9.93 58.11-11.39 56.39-12.86 56.39-15.45L56.39-15.45Q56.39-17.4 57.55-18.98 58.71-20.56 60.73-21.43 62.76-22.3 65.34-22.3L65.34-22.3Q67.21-22.3 68.95-21.83 70.68-21.36 72.06-20.47L72.06-20.47Q73.49-19.58 73.49-18.12L73.49-18.12Q73.49-17.23 73-16.62 72.51-16.02 71.8-16.02L71.8-16.02Q71.31-16.02 70.84-16.22 70.37-16.42 69.66-16.82L69.66-16.82Q68.37-17.49 67.43-17.83 66.5-18.16 65.12-18.16L65.12-18.16Q63.47-18.16 62.51-17.49 61.56-16.82 61.56-15.67L61.56-15.67Q61.56-14.55 62.54-13.98 63.52-13.4 66.32-12.82L66.32-12.82Q69.3-12.2 70.99-11.39 72.69-10.59 73.42-9.39 74.15-8.19 74.15-6.32L74.15-6.32Q74.15-3.29 71.64-1.47 69.12 0.36 64.94 0.36L64.94 0.36ZM89.73-3.87Q91.96-3.74 91.96-1.87L91.96-1.87Q91.96-0.8 91.09-0.24 90.22 0.31 88.62 0.22L88.62 0.22 87.42 0.13Q79.94-0.4 79.94-7.88L79.94-7.88 79.94-17.58 77.72-17.58Q76.51-17.58 75.87-18.12 75.22-18.65 75.22-19.67L75.22-19.67Q75.22-20.7 75.87-21.23 76.51-21.77 77.72-21.77L77.72-21.77 79.94-21.77 79.94-25.86Q79.94-27.06 80.7-27.77 81.45-28.49 82.74-28.49L82.74-28.49Q83.99-28.49 84.75-27.77 85.5-27.06 85.5-25.86L85.5-25.86 85.5-21.77 89.29-21.77Q90.49-21.77 91.14-21.23 91.78-20.7 91.78-19.67L91.78-19.67Q91.78-18.65 91.14-18.12 90.49-17.58 89.29-17.58L89.29-17.58 85.5-17.58 85.5-7.48Q85.5-4.18 88.53-3.96L88.53-3.96 89.73-3.87ZM98.19 0.27Q96.9 0.27 96.12-0.51 95.34-1.29 95.34-2.63L95.34-2.63 95.34-28.66Q95.34-29.96 96.08-30.67 96.81-31.38 98.1-31.38L98.1-31.38 109.05-31.38Q114.08-31.38 116.88-28.86 119.69-26.35 119.69-21.81L119.69-21.81Q119.69-17.27 116.88-14.73 114.08-12.2 109.05-12.2L109.05-12.2 101.08-12.2 101.08-2.63Q101.08-1.29 100.3-0.51 99.53 0.27 98.19 0.27L98.19 0.27ZM108.34-16.6Q114.26-16.6 114.26-21.77L114.26-21.77Q114.26-26.93 108.34-26.93L108.34-26.93 101.08-26.93 101.08-16.6 108.34-16.6ZM126.99 0.27Q125.79 0.27 125.01-0.42 124.23-1.11 124.23-2.4L124.23-2.4 124.23-28.98Q124.23-30.27 125.01-30.93 125.79-31.6 126.99-31.6L126.99-31.6Q128.19-31.6 128.99-30.93 129.79-30.27 129.79-28.98L129.79-28.98 129.79-2.4Q129.79-1.11 128.99-0.42 128.19 0.27 126.99 0.27L126.99 0.27ZM152.72-22.21Q154.01-22.21 154.76-21.5 155.52-20.79 155.52-19.58L155.52-19.58 155.52-2.31Q155.52-1.16 154.74-0.45 153.96 0.27 152.72 0.27L152.72 0.27Q151.51 0.27 150.8-0.4 150.09-1.07 150.09-2.23L150.09-2.23 150.09-3.34Q149.07-1.56 147.33-0.6 145.59 0.36 143.41 0.36L143.41 0.36Q135.4 0.36 135.4-8.64L135.4-8.64 135.4-19.58Q135.4-20.79 136.16-21.5 136.91-22.21 138.16-22.21L138.16-22.21Q139.45-22.21 140.21-21.5 140.96-20.79 140.96-19.58L140.96-19.58 140.96-8.59Q140.96-6.28 141.9-5.16 142.83-4.05 144.84-4.05L144.84-4.05Q147.15-4.05 148.55-5.59 149.96-7.12 149.96-9.66L149.96-9.66 149.96-19.58Q149.96-20.79 150.71-21.5 151.47-22.21 152.72-22.21L152.72-22.21ZM169.18 0.36Q164.33 0.36 161.35-1.56L161.35-1.56Q159.93-2.4 159.93-3.96L159.93-3.96Q159.93-4.85 160.42-5.41 160.91-5.96 161.62-5.96L161.62-5.96Q162.37-5.96 163.71-5.25L163.71-5.25Q165.13-4.58 166.31-4.23 167.49-3.87 169.32-3.87L169.32-3.87Q171.19-3.87 172.23-4.5 173.28-5.12 173.28-6.23L173.28-6.23Q173.28-6.99 172.86-7.43 172.43-7.88 171.34-8.26 170.25-8.64 168.03-9.12L168.03-9.12Q164.07-9.93 162.35-11.39 160.64-12.86 160.64-15.45L160.64-15.45Q160.64-17.4 161.8-18.98 162.95-20.56 164.98-21.43 167-22.3 169.58-22.3L169.58-22.3Q171.45-22.3 173.19-21.83 174.93-21.36 176.31-20.47L176.31-20.47Q177.73-19.58 177.73-18.12L177.73-18.12Q177.73-17.23 177.24-16.62 176.75-16.02 176.04-16.02L176.04-16.02Q175.55-16.02 175.08-16.22 174.61-16.42 173.9-16.82L173.9-16.82Q172.61-17.49 171.68-17.83 170.74-18.16 169.36-18.16L169.36-18.16Q167.72-18.16 166.76-17.49 165.8-16.82 165.8-15.67L165.8-15.67Q165.8-14.55 166.78-13.98 167.76-13.4 170.56-12.82L170.56-12.82Q173.55-12.2 175.24-11.39 176.93-10.59 177.66-9.39 178.4-8.19 178.4-6.32L178.4-6.32Q178.4-3.29 175.88-1.47 173.37 0.36 169.18 0.36L169.18 0.36Z" transform="translate(-3.380000114440918, 31.600000381469727)"></path></g> <!----> <!----> <!----> <!----> <!----> <!----> <!----></g></g> <!----></g></g><defs v-gra="od"></defs></svg>